<?xml version="1.0" standalone="no"?>
<!DOCTYPE svg PUBLIC "-//W3C//DTD SVG 20010904//EN"
 "http://www.w3.org/TR/2001/REC-SVG-20010904/DTD/svg10.dtd">
<svg version="1.0" xmlns="http://www.w3.org/2000/svg"
 width="137.000000pt" height="137.000000pt" viewBox="0 0 137.000000 137.000000"
 preserveAspectRatio="xMidYMid meet">
<metadata>
Created by potrace 1.14, written by Peter Selinger 2001-2017
</metadata>
<g transform="translate(0.000000,137.000000) scale(0.100000,-0.100000)"
fill="#000000" stroke="none">
<path d="M635 1359 c-103 -9 -161 -25 -251 -70 -246 -121 -395 -380 -377 -654
11 -165 77 -310 197 -430 138 -139 268 -196 456 -201 144 -4 215 11 336 71
175 88 306 250 354 440 19 77 21 231 3 311 -75 333 -385 562 -718 533z m240
-84 c194 -64 344 -212 405 -400 7 -22 13 -41 12 -42 0 -2 4 -17 9 -35 10 -34
13 -173 4 -219 -30 -160 -126 -314 -250 -401 -125 -88 -237 -123 -385 -120
-102 2 -160 17 -260 65 -239 116 -383 394 -340 652 22 125 92 265 169 339 l30
29 12 -29 c6 -16 57 -166 114 -334 121 -358 113 -337 131 -344 20 -8 33 18
109 204 37 91 69 169 72 174 3 4 23 -34 44 -85 113 -271 121 -287 139 -292 16
-4 24 9 50 77 61 158 129 341 132 356 4 17 -39 23 -50 6 -4 -6 -34 -84 -68
-174 l-61 -163 -28 63 c-15 35 -38 87 -51 116 -13 29 -24 55 -24 58 0 3 -11
29 -24 57 -21 46 -28 53 -55 55 -28 2 -34 -2 -50 -39 -10 -22 -22 -36 -25 -31
-4 6 -33 86 -65 179 -33 92 -67 188 -75 213 -9 24 -15 49 -12 56 4 11 37 21
106 31 19 3 36 6 37 7 2 2 40 1 86 -1 55 -2 110 -11 162 -28z m-397 -170 c28
-77 69 -193 92 -258 l42 -117 -32 -83 c-18 -45 -36 -85 -40 -90 -3 -4 -54 135
-113 309 l-107 317 22 16 c26 19 82 50 85 47 1 -1 24 -65 51 -141z"/>
</g>
</svg>
